<?xml version="1.0" encoding="UTF-8" standalone="no"?>
<!-- Created with Inkscape (http://www.inkscape.org/) -->

<svg
   xmlns:dc="http://purl.org/dc/elements/1.1/"
   xmlns:cc="http://creativecommons.org/ns#"
   xmlns:rdf="http://www.w3.org/1999/02/22-rdf-syntax-ns#"
   xmlns:svg="http://www.w3.org/2000/svg"
   xmlns="http://www.w3.org/2000/svg"
   xmlns:xlink="http://www.w3.org/1999/xlink"
   xmlns:sodipodi="http://sodipodi.sourceforge.net/DTD/sodipodi-0.dtd"
   xmlns:inkscape="http://www.inkscape.org/namespaces/inkscape"
   width="640"
   height="400"
   viewBox="0 0 169.33332 105.83334"
   version="1.1"
   id="svg8"
   inkscape:export-filename="/home/torbjorn/GitlabRepos/tbear_blogg/blog/2021/bilder/so_open_source.png"
   inkscape:export-xdpi="78.169533"
   inkscape:export-ydpi="78.169533"
   inkscape:version="0.92.3 (2405546, 2018-03-11)"
   sodipodi:docname="open_sourceness.svg">
  <defs
     id="defs2">
    <inkscape:path-effect
       effect="bspline"
       id="path-effect1145"
       is_visible="true"
       weight="33.333333"
       steps="2"
       helper_size="0"
       apply_no_weight="true"
       apply_with_weight="true"
       only_selected="false" />
    <inkscape:path-effect
       effect="bspline"
       id="path-effect1141"
       is_visible="true"
       weight="33.333333"
       steps="2"
       helper_size="0"
       apply_no_weight="true"
       apply_with_weight="true"
       only_selected="false" />
    <linearGradient
       inkscape:collect="always"
       id="linearGradient1050">
      <stop
         style="stop-color:#000000;stop-opacity:1;"
         offset="0"
         id="stop1046" />
      <stop
         style="stop-color:#000000;stop-opacity:0;"
         offset="1"
         id="stop1048" />
    </linearGradient>
    <linearGradient
       inkscape:collect="always"
       xlink:href="#linearGradient1050"
       id="linearGradient1052"
       x1="31.022743"
       y1="110.50237"
       x2="178.95663"
       y2="110.50237"
       gradientUnits="userSpaceOnUse"
       gradientTransform="matrix(1.0090334,0,0,1.2748279,-27.274463,90.971218)" />
  </defs>
  <sodipodi:namedview
     id="base"
     pagecolor="#ffffff"
     bordercolor="#666666"
     borderopacity="1.0"
     inkscape:pageopacity="0.0"
     inkscape:pageshadow="2"
     inkscape:zoom="1.979899"
     inkscape:cx="313.21862"
     inkscape:cy="203.46613"
     inkscape:document-units="mm"
     inkscape:current-layer="layer1"
     showgrid="false"
     inkscape:window-width="1920"
     inkscape:window-height="1025"
     inkscape:window-x="0"
     inkscape:window-y="27"
     inkscape:window-maximized="1"
     units="px" />
  <metadata
     id="metadata5">
    <rdf:RDF>
      <cc:Work
         rdf:about="">
        <dc:format>image/svg+xml</dc:format>
        <dc:type
           rdf:resource="http://purl.org/dc/dcmitype/StillImage" />
        <dc:title></dc:title>
      </cc:Work>
    </rdf:RDF>
  </metadata>
  <g
     inkscape:label="Layer 1"
     inkscape:groupmode="layer"
     id="layer1"
     transform="translate(0,-191.16664)">
    <rect
       style="opacity:1;fill:url(#linearGradient1052);fill-opacity:1;fill-rule:nonzero;stroke:none;stroke-width:0.18146253;stroke-linecap:round;stroke-linejoin:round;stroke-miterlimit:4;stroke-dasharray:none;stroke-dashoffset:0;stroke-opacity:1;paint-order:markers fill stroke"
       id="rect815"
       width="149.27025"
       height="9.9181385"
       x="4.0285211"
       y="226.88367"
       rx="0.85923243"
       ry="0.54572278" />
    <path
       style="opacity:1;fill:#000000;fill-opacity:1;fill-rule:nonzero;stroke:none;stroke-width:0.26499999;stroke-linecap:round;stroke-linejoin:round;stroke-miterlimit:4;stroke-dasharray:none;stroke-dashoffset:0;stroke-opacity:1;paint-order:markers fill stroke"
       id="path1060"
       sodipodi:type="arc"
       sodipodi:cx="9.1735935"
       sodipodi:cy="221.47905"
       sodipodi:rx="4.4884672"
       sodipodi:ry="4.6774554"
       sodipodi:start="0"
       sodipodi:end="6.024875"
       d="m 13.662061,221.47905 a 4.4884672,4.6774554 0 0 1 -4.1988146,4.66771 4.4884672,4.6774554 0 0 1 -4.7407359,-4.06527 4.4884672,4.6774554 0 0 1 3.5869493,-5.19239 4.4884672,4.6774554 0 0 1 5.2036872,3.39511 l -4.3395535,1.19484 z" />
    <text
       xml:space="preserve"
       style="font-style:normal;font-variant:normal;font-weight:normal;font-stretch:normal;font-size:4.23333311px;line-height:1.25;font-family:sans-serif;-inkscape-font-specification:'sans-serif, Normal';font-variant-ligatures:normal;font-variant-caps:normal;font-variant-numeric:normal;font-feature-settings:normal;text-align:start;letter-spacing:0px;word-spacing:0px;writing-mode:lr-tb;text-anchor:start;fill:#ffffff;fill-opacity:1;stroke:none;stroke-width:0.26458332"
       x="5.0142207"
       y="230.97116"
       id="text1072"><tspan
         sodipodi:role="line"
         id="tspan1131"
         x="5.0142207"
         y="230.97116">Everything is</tspan><tspan
         sodipodi:role="line"
         id="tspan1133"
         x="5.0142207"
         y="236.26283">a secret</tspan></text>
    <path
       style="opacity:1;fill:#ffffff;fill-opacity:1;fill-rule:nonzero;stroke:none;stroke-width:0.26499999;stroke-linecap:round;stroke-linejoin:round;stroke-miterlimit:4;stroke-dasharray:none;stroke-dashoffset:0;stroke-opacity:1;paint-order:markers fill stroke"
       id="path1095"
       sodipodi:type="arc"
       sodipodi:cx="11.063476"
       sodipodi:cy="219.54192"
       sodipodi:rx="0.33072916"
       sodipodi:ry="0.37797621"
       sodipodi:start="0"
       sodipodi:end="6.0248766"
       d="m 11.394205,219.54192 a 0.33072916,0.37797621 0 0 1 -0.309387,0.37718 0.33072916,0.37797621 0 0 1 -0.349317,-0.3285 0.33072916,0.37797621 0 0 1 0.264302,-0.41959 0.33072916,0.37797621 0 0 1 0.383429,0.27435 l -0.319756,0.0966 z" />
    <path
       d="m -146.43664,221.66835 a 4.4884672,4.6774554 0 0 1 -4.19882,4.66771 4.4884672,4.6774554 0 0 1 -4.74073,-4.06527 4.4884672,4.6774554 0 0 1 3.58695,-5.19239 4.4884672,4.6774554 0 0 1 5.20368,3.39511 l -4.33955,1.19484 z"
       sodipodi:end="6.024875"
       sodipodi:start="0"
       sodipodi:ry="4.6774554"
       sodipodi:rx="4.4884672"
       sodipodi:cy="221.66835"
       sodipodi:cx="-150.92511"
       sodipodi:type="arc"
       id="path1097"
       style="opacity:1;fill:#000000;fill-opacity:1;fill-rule:nonzero;stroke:none;stroke-width:0.26499999;stroke-linecap:round;stroke-linejoin:round;stroke-miterlimit:4;stroke-dasharray:none;stroke-dashoffset:0;stroke-opacity:1;paint-order:markers fill stroke"
       transform="scale(-1,1)" />
    <text
       id="text1101"
       y="230.57024"
       x="133.16997"
       style="font-style:normal;font-variant:normal;font-weight:normal;font-stretch:normal;font-size:4.23333311px;line-height:1.25;font-family:sans-serif;-inkscape-font-specification:'sans-serif, Normal';font-variant-ligatures:normal;font-variant-caps:normal;font-variant-numeric:normal;font-feature-settings:normal;text-align:start;letter-spacing:0px;word-spacing:0px;writing-mode:lr-tb;text-anchor:start;fill:#000000;fill-opacity:1;stroke:none;stroke-width:0.26458332"
       xml:space="preserve"><tspan
         sodipodi:role="line"
         id="tspan1127"
         x="133.16997"
         y="230.57024">Brain is on</tspan><tspan
         sodipodi:role="line"
         id="tspan1129"
         x="133.16997"
         y="235.86191">the public Web</tspan></text>
    <path
       d="m -148.7045,219.73125 a 0.33072916,0.37797621 0 0 1 -0.30939,0.37719 0.33072916,0.37797621 0 0 1 -0.34932,-0.32851 0.33072916,0.37797621 0 0 1 0.2643,-0.41959 0.33072916,0.37797621 0 0 1 0.38343,0.27435 l -0.31975,0.0966 z"
       sodipodi:end="6.0248766"
       sodipodi:start="0"
       sodipodi:ry="0.37797621"
       sodipodi:rx="0.33072916"
       sodipodi:cy="219.73125"
       sodipodi:cx="-149.03523"
       sodipodi:type="arc"
       id="path1103"
       style="opacity:1;fill:#ffffff;fill-opacity:1;fill-rule:nonzero;stroke:none;stroke-width:0.26499999;stroke-linecap:round;stroke-linejoin:round;stroke-miterlimit:4;stroke-dasharray:none;stroke-dashoffset:0;stroke-opacity:1;paint-order:markers fill stroke"
       transform="scale(-1,1)" />
    <path
       style="fill:none;stroke:#000000;stroke-width:1.16499996;stroke-linecap:butt;stroke-linejoin:miter;stroke-miterlimit:4;stroke-dasharray:none;stroke-opacity:1"
       d="m 153.41271,219.09093 c 0.0445,-0.17818 0.0654,-0.36401 0.13363,-0.53454 0.0175,-0.0438 0.34906,-0.34906 0.40091,-0.40091 0.0445,-0.0446 0.10546,-0.0773 0.13363,-0.13363 0.12621,-0.25242 -0.32205,-0.0708 0.26727,-0.26727 0.0423,-0.0141 0.0914,0.0141 0.13364,0 0.0945,-0.0315 0.17277,-0.10214 0.26727,-0.13364 0.0423,-0.0141 0.0914,0.0141 0.13363,0 0.0945,-0.0315 0.17278,-0.10213 0.26727,-0.13363 0.112,-0.0373 0.44598,0.0443 0.53454,0 0.0564,-0.0282 0.0739,-0.11371 0.13364,-0.13364 0.0739,-0.0246 0.66723,0 0.8018,0 0.0699,0 0.49941,-0.0176 0.53454,0 0.0564,0.0282 0.0773,0.10547 0.13364,0.13364 0.0398,0.0199 0.0891,0 0.13363,0 0.0891,0 0.17818,0 0.26727,0 0.26727,0 0.53454,0 0.80181,0 0.0699,0 0.4994,0.0176 0.53454,0 0.0564,-0.0282 0.0773,-0.10546 0.13364,-0.13364 0.0398,-0.0199 0.0938,0.0199 0.13363,0 0.0563,-0.0282 0.0773,-0.10546 0.13363,-0.13363 0.0399,-0.0199 0.10214,0.0315 0.13364,0 0.0315,-0.0315 -0.0315,-0.10214 0,-0.13363 0.063,-0.063 0.20427,0.063 0.26727,0 0.0315,-0.0315 -0.0315,-0.10214 0,-0.13364 0.0315,-0.0315 0.10214,0.0315 0.13363,0 0.0315,-0.0315 -0.0315,-0.10214 0,-0.13364 0.0315,-0.0315 0.10214,0.0315 0.13364,0 0.0315,-0.0315 -0.0315,-0.10213 0,-0.13363 0.52154,-0.52154 0.0718,0.0309 0.4009,-0.13363 0.0564,-0.0282 0.0891,-0.0891 0.13364,-0.13364 0.0445,-0.0445 0.10546,-0.0773 0.13363,-0.13363 0.0199,-0.0398 -0.0199,-0.0938 0,-0.13364 0.0282,-0.0563 0.0891,-0.0891 0.13364,-0.13363 0.13363,-0.13364 0.26727,-0.26727 0.4009,-0.40091 0.0891,-0.0891 0.19738,-0.16243 0.26727,-0.26727 0.0553,-0.0829 0.0784,-0.18439 0.13363,-0.26727 0.035,-0.0524 0.11372,-0.0739 0.13364,-0.13363 0.0282,-0.0845 -0.0494,-0.19314 0,-0.26727 0.0553,-0.0829 0.20751,-0.0539 0.26727,-0.13363 0.40746,-0.0946 0.0515,-0.37027 0.13363,-0.53455 0.0282,-0.0563 0.0987,-0.0812 0.13364,-0.13363 0.0553,-0.0829 0.0739,-0.18759 0.13363,-0.26727 0.0756,-0.10079 0.17818,-0.17818 0.26727,-0.26727 0.0445,-0.0445 0.10546,-0.0773 0.13364,-0.13363 0.0199,-0.0398 -0.0199,-0.0938 0,-0.13364 0.0282,-0.0563 0.11371,-0.0739 0.13363,-0.13363 0.0401,-0.12027 -0.0401,-0.28064 0,-0.40091 0.063,-0.18898 0.17818,-0.35636 0.26727,-0.53454 0.0446,-0.0891 0.10948,-0.17063 0.13364,-0.26726 0.0216,-0.0864 0,-0.17819 0,-0.26728 0,-0.0891 0,-0.17817 0,-0.26726 0,-0.31182 0,-0.62363 0,-0.93545 0,-0.35636 0,-0.71272 0,-1.06907 0,-0.13364 0.0262,-0.26987 0,-0.40091 -0.036,-0.1801 -0.0976,-0.35444 -0.13364,-0.53454 -0.0286,-0.14289 0.0461,-0.57604 0,-0.66817 -0.0563,-0.11269 -0.19738,-0.16244 -0.26727,-0.26727 -0.0247,-0.0371 0,-0.0891 0,-0.13364 0,-0.13363 0.0324,-0.27126 0,-0.4009 -0.0153,-0.0611 -0.11371,-0.0739 -0.13363,-0.13364 -0.0282,-0.0845 0.0216,-0.18084 0,-0.26727 -0.0242,-0.0966 -0.10214,-0.17277 -0.13364,-0.26727 -0.0141,-0.0423 0,-0.0891 0,-0.13363 0,-0.22273 0,-0.44545 0,-0.66818 0,-0.48999 0,-0.97998 0,-1.46998 0,-0.1119 -0.0254,-0.56654 0,-0.66817 0.17348,-0.69391 0.13364,0.14266 0.13364,-0.53454 0,-0.43925 -0.0199,0.36687 0.13363,-0.4009 0.0437,-0.2184 0,-0.44545 0,-0.66818 0,-0.0445 -0.0141,-0.0914 0,-0.13363 0.0315,-0.0945 0.10214,-0.17278 0.13364,-0.26727 0.0141,-0.0423 -0.0247,-0.0966 0,-0.13364 0.0699,-0.10483 0.19738,-0.16243 0.26727,-0.26727 0.0247,-0.0371 -0.0141,-0.0914 0,-0.13363 0.0315,-0.0945 0.10213,-0.17277 0.13363,-0.26727 0.0141,-0.0423 -0.0199,-0.0938 0,-0.13363 0.0282,-0.0564 0.10546,-0.0773 0.13364,-0.13364 0.0199,-0.0398 -0.0141,-0.0914 0,-0.13364 0.0315,-0.0945 0.10213,-0.17277 0.13363,-0.26726 0.0141,-0.0423 -0.0199,-0.0938 0,-0.13364 0.0282,-0.0563 0.11371,-0.0739 0.13364,-0.13363 0.0282,-0.0845 -0.0282,-0.18276 0,-0.26727 0.0199,-0.0598 0.10546,-0.0773 0.13363,-0.13364 0.0199,-0.0398 -0.0199,-0.0938 0,-0.13363 0.0282,-0.0564 0.10546,-0.0773 0.13363,-0.13364 0.0199,-0.0398 -0.0199,-0.0938 0,-0.13363 0.0564,-0.11269 0.21093,-0.15458 0.26728,-0.26727 0.0199,-0.0398 -0.0315,-0.10214 0,-0.13364 0.0315,-0.0315 0.10213,0.0315 0.13363,0 0.0315,-0.0315 -0.0315,-0.10213 0,-0.13363 0.0315,-0.0315 0.10214,0.0315 0.13363,0 0.0315,-0.0315 -0.0315,-0.10214 0,-0.13364 0.063,-0.063 0.18759,0.0398 0.26727,0 0.11269,-0.0563 0.15458,-0.21092 0.26727,-0.26726 0.0399,-0.0199 0.0938,0.0199 0.13364,0 0.0563,-0.0282 0.0773,-0.10547 0.13363,-0.13364 0.0797,-0.0398 0.20428,0.063 0.26727,0 0.0315,-0.0315 -0.0315,-0.10214 0,-0.13364 0.004,-0.004 0.3685,0 0.40091,0 0.0445,0 0.13363,-0.0445 0.13363,0 0,0.0445 -0.0891,0 -0.13363,0"
       id="path1117"
       inkscape:connector-curvature="0" />
    <path
       style="fill:none;stroke:#000000;stroke-width:1.16499996;stroke-linecap:butt;stroke-linejoin:miter;stroke-miterlimit:4;stroke-dasharray:none;stroke-opacity:1"
       d="m 5.7372744,219.37964 c -0.078184,-2.15787 -0.1569213,-4.33103 1.025125,-5.40969 1.1820463,-1.07867 3.5714646,-1.04763 4.7216836,-0.0402 1.150219,1.00739 1.009537,2.9613 0.867776,4.93021"
       id="path1143"
       inkscape:connector-curvature="0"
       inkscape:path-effect="#path-effect1145"
       inkscape:original-d="m 5.7372744,219.37964 c -0.07791,-2.15788 -0.156648,-4.33104 -0.236235,-6.52009 2.4434093,0.0315 4.8328276,0.0625 7.2760426,0.0945 -0.142536,1.98308 -0.283217,3.93699 -0.425223,5.90588"
       sodipodi:nodetypes="cccc" />
  </g>
</svg>
