<?xml version="1.0" standalone="no"?>
<!DOCTYPE svg PUBLIC "-//W3C//DTD SVG 20010904//EN"
 "http://www.w3.org/TR/2001/REC-SVG-20010904/DTD/svg10.dtd">
<svg version="1.0" xmlns="http://www.w3.org/2000/svg"
 width="310.000000pt" height="310.000000pt" viewBox="0 0 310.000000 310.000000"
 preserveAspectRatio="xMidYMid meet">
<metadata>
Created by potrace 1.11, written by Peter Selinger 2001-2013
</metadata>
<g transform="translate(0.000000,310.000000) scale(0.100000,-0.100000)"
fill="#000000" stroke="none">
<path d="M998 3084 c-28 -14 -58 -60 -58 -87 0 -9 -21 -19 -57 -27 -143 -32
-302 -100 -388 -168 -198 -154 -311 -331 -378 -592 -26 -98 -38 -173 -40 -247
-1 -24 -6 -43 -12 -43 -5 -1 -21 -10 -35 -21 -20 -17 -24 -30 -24 -65 2 -69
56 -141 154 -204 42 -27 47 -34 58 -89 16 -75 63 -147 123 -186 40 -26 51 -41
78 -107 65 -156 187 -309 316 -394 67 -45 186 -104 209 -104 8 0 17 -4 20 -8
9 -14 -9 -27 -39 -28 -95 -3 -370 -49 -451 -75 -17 -5 -40 -11 -50 -14 -10 -2
-39 -11 -64 -20 -25 -9 -52 -18 -60 -20 -31 -6 -187 -87 -240 -124 l-55 -38 0
-211 0 -212 1347 0 1348 0 0 24 c0 13 7 29 15 36 23 19 28 72 11 113 -13 33
-13 40 1 68 13 26 14 40 6 72 -9 31 -8 46 1 61 25 42 9 88 -39 110 -23 11 -33
22 -31 34 2 9 7 53 11 96 3 44 8 93 10 110 2 17 7 60 10 96 3 36 10 101 15
145 5 44 12 107 15 140 12 152 17 180 33 193 22 17 78 13 117 -8 17 -9 57 -18
90 -19 95 -4 104 12 120 209 3 30 7 83 10 117 7 74 -3 97 -48 112 -53 18 -139
20 -168 5 -51 -26 -82 -24 -109 8 -28 32 -92 47 -183 42 -85 -4 -114 -22 -109
-65 1 -4 -25 -16 -58 -28 -105 -39 -198 -143 -165 -187 11 -16 17 -17 55 -5
91 27 105 20 113 -51 6 -48 20 -82 44 -106 7 -8 11 -17 9 -20 -2 -4 -7 -56
-10 -117 -4 -60 -8 -128 -11 -150 -2 -22 -7 -85 -10 -140 -6 -99 -10 -163 -21
-282 -6 -63 -6 -63 -37 -63 -17 0 -59 -7 -93 -16 -60 -15 -64 -14 -103 6 -82
41 -293 109 -407 129 -33 6 -68 13 -79 15 -11 2 -42 7 -70 11 -45 6 -76 10
-140 20 -11 2 -28 4 -37 4 -22 1 -24 31 -2 31 16 0 158 66 199 92 82 53 177
146 237 234 42 61 108 195 108 219 0 8 21 28 48 46 80 54 126 121 138 201 7
49 25 73 69 95 40 21 114 99 131 140 26 62 14 112 -33 136 -24 13 -26 20 -29
89 -3 91 -18 173 -50 286 -103 354 -354 594 -708 678 -75 17 -78 19 -97 59
-33 70 -51 75 -261 75 -142 -1 -189 -4 -210 -16z"/>
</g>
</svg>
