<?xml version="1.0" encoding="UTF-8" standalone="no"?>
<svg
   viewBox="0 0 576 512"
   xmlns="http://www.w3.org/2000/svg"
   xmlns:svg="http://www.w3.org/2000/svg">
  <path
     d="M 549.655,124.083 C 543.374,100.433 524.868,81.807 501.371,75.486 458.781,64 288,64 288,64 288,64 117.22,64 74.629,75.486 51.132,81.808 32.626,100.433 26.345,124.083 14.933,166.95 14.933,256.388 14.933,256.388 c 0,0 0,89.438 11.412,132.305 6.281,23.65 24.787,41.5 48.284,47.821 C 117.22,448 288,448 288,448 c 0,0 170.78,0 213.371,-11.486 23.497,-6.321 42.003,-24.171 48.284,-47.821 11.412,-42.867 11.412,-132.305 11.412,-132.305 0,0 0,-89.438 -11.412,-132.305 z"
     id="path1115"
     style="fill:#ffffff;fill-opacity:1.0" />
  <path
     d="M549.655 124.083c-6.281-23.65-24.787-42.276-48.284-48.597C458.781 64 288 64 288 64S117.22 64 74.629 75.486c-23.497 6.322-42.003 24.947-48.284 48.597-11.412 42.867-11.412 132.305-11.412 132.305s0 89.438 11.412 132.305c6.281 23.65 24.787 41.5 48.284 47.821C117.22 448 288 448 288 448s170.78 0 213.371-11.486c23.497-6.321 42.003-24.171 48.284-47.821 11.412-42.867 11.412-132.305 11.412-132.305s0-89.438-11.412-132.305zm-317.51 213.508V175.185l142.739 81.205-142.739 81.201z"
     id="path2"
     style="fill: #ff0000;fill-opacity:1.0;" />
</svg>
