  0
SECTION
  2
HEADER
  9
$ACADVER
  1
AC1009
  9
$EXTMIN
 10
0.0
 20
0.0
 30
0.0
  9
$EXTMAX
 10
1000.0
 20
1000.0
 30
0.0
  9
$FILLMODE
 70
 0
  9
$SPLFRAME
 70
 1
  0
ENDSEC
  0
SECTION
  2
TABLES
  0
TABLE
  2
LAYER
 70
1
  0
LAYER
  2
0
 70
     0
 62
     7
  6
CONTINUOUS
  0
ENDTAB
  0
ENDSEC
  0
SECTION
  2
ENTITIES
  0
POLYLINE
  8
0
 62
     0
 66
     1
 10
0
 20
0
 30
0.0
 70
     1
 40
0.8
 41
0.8
  0
VERTEX
  8
0
 10
8.71149
 20
8.95101
 30
0.0
 40
0.0111111
 41
0.0111111
  0
VERTEX
  8
0
 10
8.7161
 20
8.72081
 30
0.0
 40
0.0111111
 41
0.0111111
  0
VERTEX
  8
0
 10
9.25478
 20
8.73003
 30
0.0
 40
0.0111111
 41
0.0111111
  0
VERTEX
  8
0
 10
9.30544
 20
8.71619
 30
0.0
 40
0.0111111
 41
0.0111111
  0
VERTEX
  8
0
 10
9.32503
 20
8.69319
 30
0.0
 40
0.0111111
 41
0.0111111
  0
VERTEX
  8
0
 10
9.33882
 20
8.67019
 30
0.0
 40
0.0111111
 41
0.0111111
  0
VERTEX
  8
0
 10
9.34918
 20
8.65175
 30
0.0
 40
0.0111111
 41
0.0111111
  0
VERTEX
  8
0
 10
9.35607
 20
8.62642
 30
0.0
 40
0.0111111
 41
0.0111111
  0
VERTEX
  8
0
 10
9.35607
 20
8.57585
 30
0.0
 40
0.0111111
 41
0.0111111
  0
VERTEX
  8
0
 10
9.36068
 20
8.48486
 30
0.0
 40
0.0111111
 41
0.0111111
  0
VERTEX
  8
0
 10
9.37913
 20
8.24544
 30
0.0
 40
0.0111111
 41
0.0111111
  0
VERTEX
  8
0
 10
9.39404
 20
8.02903
 30
0.0
 40
0.0111111
 41
0.0111111
  0
VERTEX
  8
0
 10
9.40213
 20
7.93349
 30
0.0
 40
0.0111111
 41
0.0111111
  0
VERTEX
  8
0
 10
9.41363
 20
7.88628
 30
0.0
 40
0.0111111
 41
0.0111111
  0
VERTEX
  8
0
 10
9.42974
 20
7.84944
 30
0.0
 40
0.0111111
 41
0.0111111
  0
VERTEX
  8
0
 10
9.45736
 20
7.81956
 30
0.0
 40
0.0111111
 41
0.0111111
  0
VERTEX
  8
0
 10
9.47928
 20
7.7965
 30
0.0
 40
0.0111111
 41
0.0111111
  0
VERTEX
  8
0
 10
9.49994
 20
7.78271
 30
0.0
 40
0.0111111
 41
0.0111111
  0
VERTEX
  8
0
 10
9.523
 20
7.7654
 30
0.0
 40
0.0111111
 41
0.0111111
  0
VERTEX
  8
0
 10
9.52815
 20
7.76226
 30
0.0
 40
0.0111111
 41
0.0111111
  0
VERTEX
  8
0
 10
9.53678
 20
7.75738
 30
0.0
 40
0.0111111
 41
0.0111111
  0
VERTEX
  8
0
 10
9.54943
 20
7.75136
 30
0.0
 40
0.0111111
 41
0.0111111
  0
VERTEX
  8
0
 10
9.55865
 20
7.74701
 30
0.0
 40
0.0111111
 41
0.0111111
  0
VERTEX
  8
0
 10
9.56788
 20
7.74354
 30
0.0
 40
0.0111111
 41
0.0111111
  0
VERTEX
  8
0
 10
9.62543
 20
7.7424
 30
0.0
 40
0.0111111
 41
0.0111111
  0
VERTEX
  8
0
 10
10.8157
 20
7.73779
 30
0.0
 40
0.0111111
 41
0.0111111
  0
VERTEX
  8
0
 10
10.8582
 20
7.74815
 30
0.0
 40
0.0111111
 41
0.0111111
  0
VERTEX
  8
0
 10
10.8927
 20
7.77115
 30
0.0
 40
0.0111111
 41
0.0111111
  0
VERTEX
  8
0
 10
10.9135
 20
7.79189
 30
0.0
 40
0.0111111
 41
0.0111111
  0
VERTEX
  8
0
 10
10.9365
 20
7.82183
 30
0.0
 40
0.0111111
 41
0.0111111
  0
VERTEX
  8
0
 10
10.9572
 20
7.85406
 30
0.0
 40
0.0111111
 41
0.0111111
  0
VERTEX
  8
0
 10
10.9849
 20
7.90701
 30
0.0
 40
0.0111111
 41
0.0111111
  0
VERTEX
  8
0
 10
11.2139
 20
8.52974
 30
0.0
 40
0.0111111
 41
0.0111111
  0
VERTEX
  8
0
 10
11.2392
 20
8.59076
 30
0.0
 40
0.0111111
 41
0.0111111
  0
VERTEX
  8
0
 10
11.2588
 20
8.6345
 30
0.0
 40
0.0111111
 41
0.0111111
  0
VERTEX
  8
0
 10
11.2772
 20
8.67019
 30
0.0
 40
0.0111111
 41
0.0111111
  0
VERTEX
  8
0
 10
11.3071
 20
8.70469
 30
0.0
 40
0.0111111
 41
0.0111111
  0
VERTEX
  8
0
 10
11.3347
 20
8.7194
 30
0.0
 40
0.0111111
 41
0.0111111
  0
VERTEX
  8
0
 10
11.3567
 20
8.72054
 30
0.0
 40
0.0111111
 41
0.0111111
  0
VERTEX
  8
0
 10
11.405
 20
8.72054
 30
0.0
 40
0.0111111
 41
0.0111111
  0
VERTEX
  8
0
 10
11.8424
 20
8.72515
 30
0.0
 40
0.0111111
 41
0.0111111
  0
VERTEX
  8
0
 10
11.8462
 20
8.83985
 30
0.0
 40
0.0111111
 41
0.0111111
  0
VERTEX
  8
0
 10
11.85
 20
8.95449
 30
0.0
 40
0.0111111
 41
0.0111111
  0
VERTEX
  8
0
 10
8.71149
 20
8.95101
 30
0.0
 40
0.0111111
 41
0.0111111
  0
SEQEND
 8
0
  0
ENDSEC
  0
EOF
