<?xml version="1.0" encoding="UTF-8" standalone="no"?>
<svg
   xmlns:dc="http://purl.org/dc/elements/1.1/"
   xmlns:cc="http://creativecommons.org/ns#"
   xmlns:rdf="http://www.w3.org/1999/02/22-rdf-syntax-ns#"
   xmlns:svg="http://www.w3.org/2000/svg"
   xmlns="http://www.w3.org/2000/svg"
   xmlns:xlink="http://www.w3.org/1999/xlink"
   height="174.5"
   width="175"
   xml:space="preserve"
   viewBox="0 0 174.99999 174.5"
   y="0px"
   x="0px"
   id="Layer_1"
   version="1.0"><metadata
   id="metadata25"><rdf:RDF><cc:Work
       rdf:about=""><dc:format>image/svg+xml</dc:format><dc:type
         rdf:resource="http://purl.org/dc/dcmitype/StillImage" /><dc:title></dc:title></cc:Work></rdf:RDF></metadata><defs
   id="defs23" />
<style
   id="style2"
   type="text/css">
	.st0{clip-path:url(#SVGID_2_);}
	.st1{fill:#5865F2;}
	.st2{fill:#FFFFFF;}
	.st3{fill:none;}
</style>
<g
   transform="translate(-76,-29.5)"
   id="g16">
	<defs
   id="defs5">
		<rect
   height="172"
   width="172"
   y="31"
   x="78"
   id="SVGID_1_" />
	</defs>
	<clipPath
   id="SVGID_2_">
		<use
   height="100%"
   width="100%"
   y="0"
   x="0"
   id="use7"
   style="overflow:visible"
   xlink:href="#SVGID_1_" />
	</clipPath>
	<g
   id="g14"
   clip-path="url(#SVGID_2_)"
   class="st0">
		<path
   style="fill:#5865f2"
   id="path10"
   d="M 78,116.8 C 78,69.4 116.4,31 163.8,31 c 47.4,0 85.8,38.4 85.8,85.8 0,47.4 -38.4,85.8 -85.8,85.8 0,0 0,0 0,0 C 116.4,202.5 78,164.1 78,116.8 c 0,0 0,0 0,0 z"
   class="st1" />
		<path
   style="fill:#ffffff"
   id="path12"
   d="m 202.4,81.9 c -7.3,-3.3 -14.9,-5.7 -22.8,-7 -1,1.8 -2.1,4.1 -2.9,6 -8.4,-1.3 -16.9,-1.3 -25.3,0 -0.9,-2.1 -1.9,-4.1 -3,-6 -7.9,1.3 -15.6,3.7 -22.8,7.1 -14.4,21.5 -18.3,42.4 -16.4,63.1 8.5,6.3 17.9,11.1 28,14.1 2.3,-3.1 4.3,-6.3 6,-9.7 -3.3,-1.2 -6.4,-2.7 -9.4,-4.5 0.8,-0.6 1.5,-1.2 2.3,-1.8 17.7,8.4 38.3,8.4 56,0 0.8,0.6 1.5,1.2 2.3,1.8 -3,1.8 -6.2,3.3 -9.5,4.5 1.7,3.4 3.7,6.6 6,9.7 10.1,-3.1 19.6,-7.8 28,-14.1 2.2,-24 -4,-44.8 -16.5,-63.2 z m -56.8,50.4 c -5.5,0 -9.9,-5 -9.9,-11.1 0,-6.1 4.4,-11.2 9.9,-11.2 5.6,0 10,5 10,11.2 -0.1,6.1 -4.4,11.1 -10,11.1 z m 36.8,0 c -5.5,0 -9.9,-5 -9.9,-11.1 0,-6.1 4.4,-11.2 9.9,-11.2 5.6,0 10,5 9.9,11.2 -0.1,6.2 -4.4,11.1 -9.9,11.1 z"
   class="st2" />
	</g>
</g>
<rect
   style="fill:none"
   id="rect18"
   height="200"
   width="200"
   class="st3"
   y="-12.5"
   x="-12" />
</svg>